<svg version="1.1" viewBox="0.0 0.0 432.0 59.0" fill="none" stroke="none" stroke-linecap="square" stroke-miterlimit="10" xmlns:xlink="http://www.w3.org/1999/xlink" xmlns="http://www.w3.org/2000/svg"><clipPath id="g29da4f369d8_0_0.0"><path d="m0 0l432.0 0l0 59.0l-432.0 0l0 -59.0z" clip-rule="nonzero"/></clipPath><g clip-path="url(#g29da4f369d8_0_0.0)"><path fill="#000000" fill-opacity="0.0" d="m0 0l432.0 0l0 59.0l-432.0 0z" fill-rule="evenodd"/><path fill="#000000" fill-opacity="0.0" d="m68.931755 2.391076l363.0551 0l0 54.929134l-363.0551 0z" fill-rule="evenodd"/><path fill="#ffffff" d="m82.431755 12.1781435l7.15625 0q5.875 0 8.359375 1.0625q2.5 1.046875 4.015625 3.484376q1.53125 2.421875 1.53125 5.75q0 3.484375 -1.6875 5.84375q-1.671875 2.34375 -5.046875 3.546875l8.390625 15.749998l-7.375 0l-7.96875 -15.0l-0.625 0l0 15.0l-6.75 0l0 -35.4375zm6.75 13.859376l2.125 0q3.21875 0 4.4375 -0.84375q1.21875 -0.84375 1.21875 -2.796875q0 -1.15625 -0.609375 -2.0q-0.59375 -0.859375 -1.609375 -1.234375q-1.015625 -0.375 -3.703125 -0.375l-1.859375 0l0 7.25zm18.879791 -13.859376l7.25 0l6.59375 12.718751l6.5625076 -12.718751l7.15625 0l-10.359383 20.09375l0 15.34375l-6.796875 0l0 -15.34375l-10.40625 -20.09375zm65.8236 5.781251l-4.734375 4.703125q-4.515625 -4.765625 -10.5 -4.765625q-5.234375 0 -8.765625 3.46875q-3.53125 3.46875 -3.53125 8.421875q0 5.140623 3.65625 8.703123q3.671875 3.5625 9.046875 3.5625q3.484375 0 5.875 -1.46875q2.40625 -1.46875 3.875 -4.609375l-10.265625 0l0 -6.328123l17.828125 0l0.046875 1.5q0 4.640623 -2.40625 8.812498q-2.40625 4.15625 -6.234375 6.359375q-3.828125 2.1875 -8.984375 2.1875q-5.515625 0 -9.84375 -2.390625q-4.328125 -2.40625 -6.84375 -6.828125q-2.515625 -4.4375 -2.515625 -9.562498q0 -7.03125 4.65625 -12.234375q5.515625 -6.203126 14.34375 -6.203126q4.625 0 8.65625 1.71875q3.390625 1.4375 6.640625 4.953126zm8.7247925 29.656248l0 -35.4375l5.5625 0q4.84375 0 7.078125 0.640625q3.1875 0.828125 5.0625 3.125q1.875 2.281251 1.875 5.390626q0 2.03125 -0.859375 3.6875q-0.84375 1.640625 -2.78125 3.078125q3.234375 1.515625 4.71875 3.796875q1.5 2.281248 1.5 5.390623q0 2.984375 -1.546875 5.4375q-1.53125 2.453125 -3.96875 3.671875q-2.4375 1.21875 -6.71875 1.21875l-9.921875 0zm6.75 -28.999998l0 7.46875l1.46875 0q2.453125 0 3.640625 -1.03125q1.1875 -1.046875 1.1875 -2.828125q0 -1.65625 -1.125 -2.625q-1.125 -0.984375 -3.4375 -0.984375l-1.734375 0zm0 13.484373l0 9.078125l1.671875 0q4.203125 0 5.65625 -1.046875q1.453125 -1.0625 1.453125 -3.09375q0 -2.28125 -1.71875 -3.609375q-1.703125 -1.328125 -5.671875 -1.328125l-1.390625 0z" fill-rule="nonzero"/><path fill="#ffffff" d="m225.29102 47.615643l0 -35.4375l7.34375 0q7.953125 0 11.53125 1.28125q5.15625 1.8125 8.0625 6.265626q2.90625 4.453125 2.90625 10.625q0 5.312498 -2.3125 9.359373q-2.296875 4.046875 -5.96875 5.984375q-3.671875 1.921875 -10.296875 1.921875l-11.265625 0zm3.390625 -3.34375l4.09375 0q7.34375 0 10.1875 -0.921875q4.0 -1.296875 6.28125 -4.671875q2.296875 -3.390625 2.296875 -8.281248q0 -5.140625 -2.484375 -8.765625q-2.46875 -3.640625 -6.90625 -4.984375q-3.328125 -1.015626 -10.953125 -1.015626l-2.515625 0l0 28.640625zm45.160187 -23.531248q6.046875 0 10.03125 4.375q3.609375 4.0 3.609375 9.468748q0 5.5 -3.828125 9.609375q-3.8125 4.09375 -9.8125 4.09375q-6.015625 0 -9.84375 -4.09375q-3.8125 -4.109375 -3.8125 -9.609375q0 -5.437498 3.625 -9.437498q3.96875 -4.40625 10.03125 -4.40625zm0 3.296875q-4.1875 0 -7.203125 3.109375q-3.0 3.109375 -3.0 7.515623q0 2.84375 1.359375 5.296875q1.375 2.453125 3.71875 3.796875q2.34375 1.328125 5.125 1.328125q2.796875 0 5.125 -1.328125q2.34375 -1.34375 3.71875 -3.796875q1.375 -2.453125 1.375 -5.296875q0 -4.406248 -3.03125 -7.515623q-3.015625 -3.109375 -7.1875 -3.109375zm45.330566 2.8125l-2.671875 1.671875q-3.46875 -4.609375 -9.46875 -4.609375q-4.78125 0 -7.953125 3.09375q-3.171875 3.078125 -3.171875 7.484373q0 2.859375 1.453125 5.390625q1.46875 2.53125 4.0 3.9375q2.546875 1.390625 5.703125 1.390625q5.78125 0 9.4375 -4.609375l2.671875 1.765625q-1.875 2.8125 -5.046875 4.375q-3.15625 1.546875 -7.203125 1.546875q-6.21875 0 -10.3125 -3.9375q-4.09375 -3.953125 -4.09375 -9.625q0 -3.796873 1.90625 -7.062498q1.921875 -3.265625 5.265625 -5.09375q3.34375 -1.828125 7.5 -1.828125q2.59375 0 5.015625 0.796875q2.421875 0.78125 4.109375 2.0625q1.6875 1.28125 2.859375 3.25zm19.66397 -2.578125l-2.171875 2.25q-2.703125 -2.625 -5.28125 -2.625q-1.625 0 -2.796875 1.078125q-1.171875 1.078125 -1.171875 2.53125q0 1.28125 0.96875 2.4375q0.953125 1.171875 4.046875 2.765623q3.75 1.953125 5.09375 3.75q1.328125 1.828125 1.328125 4.125q0 3.21875 -2.265625 5.46875q-2.265625 2.234375 -5.65625 2.234375q-2.265625 0 -4.328125 -0.984375q-2.046875 -0.984375 -3.40625 -2.71875l2.125 -2.40625q2.578125 2.90625 5.46875 2.90625q2.015625 0 3.4375 -1.296875q1.421875 -1.296875 1.421875 -3.0625q0 -1.4375 -0.9375 -2.578125q-0.9375 -1.109375 -4.234375 -2.796875q-3.546875 -1.828125 -4.828125 -3.609373q-1.265625 -1.78125 -1.265625 -4.0625q0 -3.0 2.03125 -4.96875q2.03125 -1.96875 5.140625 -1.96875q3.609375 0 7.28125 3.53125z" fill-rule="nonzero"/><path fill="#ffffff" d="m4.1824145 51.805775l56.599995 0l0 5.1023636l-56.599995 0z" fill-rule="evenodd"/><path fill="#ffffff" d="m60.778282 7.643013l0 47.77953l-5.0090714 0l0 -47.77953z" fill-rule="evenodd"/><path fill="#3c78d8" d="m53.57373 2.8031182l0 46.897636l-10.246986 0l0 -46.897636z" fill-rule="evenodd"/><path fill="#6aa84f" d="m40.522995 16.597658l0 33.102364l-10.246988 0l0 -33.102364z" fill-rule="evenodd"/><path fill="#f1c232" d="m27.47226 22.646534l0 27.02362l-10.24699 0l0 -27.02362z" fill-rule="evenodd"/><path fill="#cc0000" d="m14.421522 27.488737l0 22.204725l-10.246988 0l0 -22.204725z" fill-rule="evenodd"/></g></svg>